<mxfile host="Electron" agent="Mozilla/5.0 (X11; Linux x86_64) AppleWebKit/537.36 (KHTML, like Gecko) draw.io/26.2.2 Chrome/134.0.6998.178 Electron/35.1.2 Safari/537.36" version="26.2.2">
  <diagram name="Seite-1" id="01_Xr9nUUL20U0b2GzJT">
    <mxGraphModel dx="1190" dy="710" grid="1" gridSize="10" guides="1" tooltips="1" connect="1" arrows="1" fold="1" page="1" pageScale="1" pageWidth="827" pageHeight="500" math="0" shadow="0">
      <root>
        <mxCell id="0" />
        <mxCell id="1" parent="0" />
        <mxCell id="JcNnAGVts7ezAQgbqaAv-1" value="Command:&lt;br&gt;grcpp -o --ptions program -o --ptions" style="ellipse;whiteSpace=wrap;html=1;" parent="1" vertex="1">
          <mxGeometry x="309" y="20" width="210" height="80" as="geometry" />
        </mxCell>
        <mxCell id="JcNnAGVts7ezAQgbqaAv-10" value="" style="shape=flexArrow;endArrow=classic;html=1;rounded=0;exitX=0.5;exitY=1;exitDx=0;exitDy=0;" parent="1" source="JcNnAGVts7ezAQgbqaAv-1" target="JcNnAGVts7ezAQgbqaAv-12" edge="1">
          <mxGeometry width="50" height="50" relative="1" as="geometry">
            <mxPoint x="460" y="220" as="sourcePoint" />
            <mxPoint x="414" y="150" as="targetPoint" />
          </mxGeometry>
        </mxCell>
        <mxCell id="JcNnAGVts7ezAQgbqaAv-11" value="starts" style="text;html=1;align=center;verticalAlign=middle;whiteSpace=wrap;rounded=0;rotation=90;connectable=0;allowArrows=0;fontSize=8;" parent="1" vertex="1">
          <mxGeometry x="399" y="110" width="30" height="10" as="geometry" />
        </mxCell>
        <mxCell id="JcNnAGVts7ezAQgbqaAv-12" value="grccpp -o --ptions" style="rounded=0;whiteSpace=wrap;html=1;verticalAlign=middle;spacing=2;" parent="1" vertex="1">
          <mxGeometry x="354" y="150" width="120" height="50" as="geometry" />
        </mxCell>
        <mxCell id="JcNnAGVts7ezAQgbqaAv-25" value="" style="shape=flexArrow;endArrow=classic;html=1;rounded=0;exitX=1;exitY=0.5;exitDx=0;exitDy=0;fillColor=#f8cecc;strokeColor=#b85450;" parent="1" source="JcNnAGVts7ezAQgbqaAv-12" edge="1">
          <mxGeometry width="50" height="50" relative="1" as="geometry">
            <mxPoint x="504" y="160" as="sourcePoint" />
            <mxPoint x="520" y="175" as="targetPoint" />
          </mxGeometry>
        </mxCell>
        <mxCell id="JcNnAGVts7ezAQgbqaAv-26" value="starts" style="text;html=1;align=center;verticalAlign=middle;whiteSpace=wrap;rounded=0;rotation=0;connectable=0;allowArrows=0;fontSize=8;" parent="1" vertex="1">
          <mxGeometry x="474" y="170" width="30" height="10" as="geometry" />
        </mxCell>
        <mxCell id="JcNnAGVts7ezAQgbqaAv-27" value="" style="shape=flexArrow;endArrow=classic;html=1;rounded=0;exitX=0;exitY=0.5;exitDx=0;exitDy=0;fillColor=#d5e8d4;strokeColor=#82b366;" parent="1" source="JcNnAGVts7ezAQgbqaAv-12" edge="1">
          <mxGeometry width="50" height="50" relative="1" as="geometry">
            <mxPoint x="300" y="205" as="sourcePoint" />
            <mxPoint x="308" y="175" as="targetPoint" />
          </mxGeometry>
        </mxCell>
        <mxCell id="JcNnAGVts7ezAQgbqaAv-28" value="starts" style="text;html=1;align=center;verticalAlign=middle;whiteSpace=wrap;rounded=0;rotation=0;connectable=0;allowArrows=0;fontSize=8;" parent="1" vertex="1">
          <mxGeometry x="324" y="170" width="30" height="10" as="geometry" />
        </mxCell>
        <mxCell id="Q0sO79nEaUBfTDK4ofpC-3" value="grcat config:program" style="rounded=0;whiteSpace=wrap;html=1;verticalAlign=middle;spacing=2;fillColor=#d5e8d4;strokeColor=#82b366;" vertex="1" parent="1">
          <mxGeometry x="179" y="150" width="130" height="50" as="geometry" />
        </mxCell>
        <mxCell id="Q0sO79nEaUBfTDK4ofpC-4" value="grcat config:program" style="rounded=0;whiteSpace=wrap;html=1;verticalAlign=middle;spacing=2;fillColor=#f8cecc;strokeColor=#b85450;" vertex="1" parent="1">
          <mxGeometry x="519" y="150" width="130" height="50" as="geometry" />
        </mxCell>
        <mxCell id="Q0sO79nEaUBfTDK4ofpC-5" value="" style="shape=flexArrow;endArrow=classic;html=1;rounded=0;exitX=0.5;exitY=1;exitDx=0;exitDy=0;" edge="1" parent="1">
          <mxGeometry width="50" height="50" relative="1" as="geometry">
            <mxPoint x="414" y="200" as="sourcePoint" />
            <mxPoint x="414" y="270" as="targetPoint" />
          </mxGeometry>
        </mxCell>
        <mxCell id="Q0sO79nEaUBfTDK4ofpC-6" value="starts child" style="text;html=1;align=center;verticalAlign=middle;whiteSpace=wrap;rounded=0;rotation=90;connectable=0;allowArrows=0;fontSize=8;" vertex="1" parent="1">
          <mxGeometry x="388.5" y="220.5" width="51" height="10" as="geometry" />
        </mxCell>
        <mxCell id="Q0sO79nEaUBfTDK4ofpC-15" style="edgeStyle=orthogonalEdgeStyle;rounded=0;orthogonalLoop=1;jettySize=auto;html=1;exitX=0;exitY=0.5;exitDx=0;exitDy=0;curved=1;strokeColor=#82b366;flowAnimation=0;shadow=0;fillColor=#d5e8d4;" edge="1" parent="1" source="Q0sO79nEaUBfTDK4ofpC-12" target="Q0sO79nEaUBfTDK4ofpC-3">
          <mxGeometry relative="1" as="geometry" />
        </mxCell>
        <mxCell id="Q0sO79nEaUBfTDK4ofpC-16" style="edgeStyle=orthogonalEdgeStyle;rounded=0;orthogonalLoop=1;jettySize=auto;html=1;exitX=1;exitY=0.5;exitDx=0;exitDy=0;curved=1;fillColor=#f8cecc;strokeColor=#b85450;" edge="1" parent="1" source="Q0sO79nEaUBfTDK4ofpC-12" target="Q0sO79nEaUBfTDK4ofpC-4">
          <mxGeometry relative="1" as="geometry" />
        </mxCell>
        <mxCell id="Q0sO79nEaUBfTDK4ofpC-12" value="program -o --ptions" style="shape=process;whiteSpace=wrap;html=1;backgroundOutline=1;size=0.10294117647058823;" vertex="1" parent="1">
          <mxGeometry x="346" y="270" width="136" height="60" as="geometry" />
        </mxCell>
        <mxCell id="Q0sO79nEaUBfTDK4ofpC-18" value="stdout" style="text;html=1;align=center;verticalAlign=middle;whiteSpace=wrap;rounded=0;rotation=90;" vertex="1" parent="1">
          <mxGeometry x="324" y="285" width="60" height="30" as="geometry" />
        </mxCell>
        <mxCell id="Q0sO79nEaUBfTDK4ofpC-19" value="stderr" style="text;html=1;align=center;verticalAlign=middle;whiteSpace=wrap;rounded=0;rotation=90;" vertex="1" parent="1">
          <mxGeometry x="444" y="285" width="60" height="30" as="geometry" />
        </mxCell>
        <mxCell id="Q0sO79nEaUBfTDK4ofpC-26" value="Terminal" style="shape=parallelogram;perimeter=parallelogramPerimeter;whiteSpace=wrap;html=1;fixedSize=1;" vertex="1" parent="1">
          <mxGeometry x="354" y="390" width="120" height="60" as="geometry" />
        </mxCell>
        <mxCell id="Q0sO79nEaUBfTDK4ofpC-36" style="edgeStyle=elbowEdgeStyle;rounded=0;orthogonalLoop=1;jettySize=auto;html=1;exitX=0.5;exitY=1;exitDx=0;exitDy=0;curved=1;fillColor=#d5e8d4;strokeColor=#82b366;" edge="1" parent="1" target="Q0sO79nEaUBfTDK4ofpC-40">
          <mxGeometry relative="1" as="geometry">
            <mxPoint x="200" y="220.5" as="sourcePoint" />
            <mxPoint x="330" y="420" as="targetPoint" />
            <Array as="points">
              <mxPoint x="200" y="310" />
            </Array>
          </mxGeometry>
        </mxCell>
        <mxCell id="Q0sO79nEaUBfTDK4ofpC-27" value="stdout" style="rounded=0;whiteSpace=wrap;html=1;fillColor=#d5e8d4;strokeColor=#82b366;" vertex="1" parent="1">
          <mxGeometry x="179" y="200" width="41" height="20" as="geometry" />
        </mxCell>
        <mxCell id="Q0sO79nEaUBfTDK4ofpC-37" style="edgeStyle=elbowEdgeStyle;rounded=0;orthogonalLoop=1;jettySize=auto;html=1;exitX=0.5;exitY=1;exitDx=0;exitDy=0;curved=1;fillColor=#f8cecc;strokeColor=#b85450;" edge="1" parent="1" source="Q0sO79nEaUBfTDK4ofpC-28" target="Q0sO79nEaUBfTDK4ofpC-39">
          <mxGeometry relative="1" as="geometry">
            <mxPoint x="500" y="420" as="targetPoint" />
            <Array as="points">
              <mxPoint x="629" y="300" />
            </Array>
          </mxGeometry>
        </mxCell>
        <mxCell id="Q0sO79nEaUBfTDK4ofpC-28" value="stdout" style="rounded=0;whiteSpace=wrap;html=1;fillColor=#f8cecc;strokeColor=#b85450;" vertex="1" parent="1">
          <mxGeometry x="608" y="200" width="41" height="20" as="geometry" />
        </mxCell>
        <mxCell id="Q0sO79nEaUBfTDK4ofpC-31" style="edgeStyle=orthogonalEdgeStyle;rounded=0;orthogonalLoop=1;jettySize=auto;html=1;exitX=0.5;exitY=1;exitDx=0;exitDy=0;entryX=0.75;entryY=0;entryDx=0;entryDy=0;curved=1;fillColor=#dae8fc;strokeColor=#6c8ebf;" edge="1" parent="1" source="Q0sO79nEaUBfTDK4ofpC-29" target="Q0sO79nEaUBfTDK4ofpC-40">
          <mxGeometry relative="1" as="geometry" />
        </mxCell>
        <mxCell id="Q0sO79nEaUBfTDK4ofpC-29" value="stdout" style="rounded=0;whiteSpace=wrap;html=1;fillColor=#dae8fc;strokeColor=#6c8ebf;" vertex="1" parent="1">
          <mxGeometry x="346" y="330" width="41" height="20" as="geometry" />
        </mxCell>
        <mxCell id="Q0sO79nEaUBfTDK4ofpC-32" style="edgeStyle=orthogonalEdgeStyle;rounded=0;orthogonalLoop=1;jettySize=auto;html=1;exitX=0.5;exitY=1;exitDx=0;exitDy=0;entryX=0.75;entryY=0;entryDx=0;entryDy=0;curved=1;fillColor=#dae8fc;strokeColor=#6c8ebf;" edge="1" parent="1" source="Q0sO79nEaUBfTDK4ofpC-30" target="Q0sO79nEaUBfTDK4ofpC-39">
          <mxGeometry relative="1" as="geometry" />
        </mxCell>
        <mxCell id="Q0sO79nEaUBfTDK4ofpC-30" value="stderr" style="rounded=0;whiteSpace=wrap;html=1;fillColor=#dae8fc;strokeColor=#6c8ebf;" vertex="1" parent="1">
          <mxGeometry x="441" y="330" width="41" height="20" as="geometry" />
        </mxCell>
        <mxCell id="Q0sO79nEaUBfTDK4ofpC-39" value="" style="shape=parallelogram;perimeter=parallelogramPerimeter;whiteSpace=wrap;html=1;fixedSize=1;" vertex="1" parent="1">
          <mxGeometry x="455" y="390" width="38" height="60" as="geometry" />
        </mxCell>
        <mxCell id="Q0sO79nEaUBfTDK4ofpC-40" value="" style="shape=parallelogram;perimeter=parallelogramPerimeter;whiteSpace=wrap;html=1;fixedSize=1;" vertex="1" parent="1">
          <mxGeometry x="335" y="390" width="38" height="60" as="geometry" />
        </mxCell>
        <mxCell id="Q0sO79nEaUBfTDK4ofpC-42" value="stdout" style="text;html=1;align=center;verticalAlign=middle;whiteSpace=wrap;rounded=0;rotation=-70;" vertex="1" parent="1">
          <mxGeometry x="324" y="412.5" width="60" height="15" as="geometry" />
        </mxCell>
        <mxCell id="Q0sO79nEaUBfTDK4ofpC-43" value="stderr" style="text;html=1;align=center;verticalAlign=middle;whiteSpace=wrap;rounded=0;rotation=-70;" vertex="1" parent="1">
          <mxGeometry x="444" y="412.5" width="60" height="15" as="geometry" />
        </mxCell>
        <mxCell id="Q0sO79nEaUBfTDK4ofpC-45" value="&lt;div&gt;&lt;span style=&quot;background-color: transparent;&quot;&gt;&lt;font style=&quot;color: rgb(0, 255, 0);&quot;&gt;if grcpp redirects stdout&lt;/font&gt;&lt;/span&gt;&lt;/div&gt;&lt;font style=&quot;color: rgb(255, 0, 0);&quot;&gt;&lt;font style=&quot;&quot;&gt;if grcpp redirects stderr&lt;/font&gt;&lt;br&gt;&lt;/font&gt;&lt;font style=&quot;color: light-dark(rgb(0, 0, 255), rgb(237, 237, 237));&quot;&gt;for non-redirected streams&lt;/font&gt;" style="rounded=1;whiteSpace=wrap;html=1;fillColor=#FFFFFF;" vertex="1" parent="1">
          <mxGeometry x="9" y="150" width="161" height="60" as="geometry" />
        </mxCell>
      </root>
    </mxGraphModel>
  </diagram>
</mxfile>
